<svg xmlns="http://www.w3.org/2000/svg" width="104" height="197.809" viewBox="0 0 104 197.809">
  <path id="Intersection_1" data-name="Intersection 1" d="M119.589,257.47a140.123,140.123,0,0,1-23.526-12.355,138.565,138.565,0,0,1-20.5-16.363,135.985,135.985,0,0,1-16.912-19.831,132.671,132.671,0,0,1-12.77-22.762,130.234,130.234,0,0,1,0-104.317A132.121,132.121,0,0,1,54.134,66H90.179q-.915,1.238-1.794,2.5A109,109,0,0,0,77.919,87.183a107.08,107.08,0,0,0,0,85.634A109,109,0,0,0,88.384,191.5a111.591,111.591,0,0,0,13.859,16.28,113.957,113.957,0,0,0,36.077,23.574l.679.276v32.177A141.068,141.068,0,0,1,119.589,257.47Z" transform="translate(-35 -66)" fill="#faadfa"/>
</svg>
